name D:\school\WTK\thesis\model\3dpredictsim\Results\MidTarsalJoint\Fal_s1_bCst_PF_Natali2010_ls148_MT_nl_fitted4_MTP_T5_ig24_mtp1.mot
datacolumns 128
datarows 4
range 0.56987177 0.60406408
endheader
time	pelvis_tilt	pelvis_list	pelvis_rotation	pelvis_tx	pelvis_ty	pelvis_tz	hip_flexion_l	hip_adduction_l	hip_rotation_l	hip_flexion_r	hip_adduction_r	hip_rotation_r	knee_angle_l	knee_angle_r	ankle_angle_l	ankle_angle_r	subtalar_angle_l	subtalar_angle_r	mtj_angle_l	mtj_angle_r	mtp_angle_l	mtp_angle_r	lumbar_extension	lumbar_bending	lumbar_rotation	arm_flex_l	arm_add_l	arm_rot_l	arm_flex_r	arm_add_r	arm_rot_r	elbow_flex_l	elbow_flex_r	pro_sup_l	pro_sup_r	glut_med1_l/activation	glut_med2_l/activation	glut_med3_l/activation	glut_min1_l/activation	glut_min2_l/activation	glut_min3_l/activation	semimem_l/activation	semiten_l/activation	bifemlh_l/activation	bifemsh_l/activation	sar_l/activation	add_long_l/activation	add_brev_l/activation	add_mag1_l/activation	add_mag2_l/activation	add_mag3_l/activation	tfl_l/activation	pect_l/activation	grac_l/activation	glut_max1_l/activation	glut_max2_l/activation	glut_max3_l/activation	iliacus_l/activation	psoas_l/activation	quad_fem_l/activation	gem_l/activation	peri_l/activation	rect_fem_l/activation	vas_med_l/activation	vas_int_l/activation	vas_lat_l/activation	med_gas_l/activation	lat_gas_l/activation	soleus_l/activation	tib_post_l/activation	flex_dig_l/activation	flex_hal_l/activation	tib_ant_l/activation	per_brev_l/activation	per_long_l/activation	per_tert_l/activation	ext_dig_l/activation	ext_hal_l/activation	ercspn_l/activation	intobl_l/activation	extobl_l/activation	glut_med1_r/activation	glut_med2_r/activation	glut_med3_r/activation	glut_min1_r/activation	glut_min2_r/activation	glut_min3_r/activation	semimem_r/activation	semiten_r/activation	bifemlh_r/activation	bifemsh_r/activation	sar_r/activation	add_long_r/activation	add_brev_r/activation	add_mag1_r/activation	add_mag2_r/activation	add_mag3_r/activation	tfl_r/activation	pect_r/activation	grac_r/activation	glut_max1_r/activation	glut_max2_r/activation	glut_max3_r/activation	iliacus_r/activation	psoas_r/activation	quad_fem_r/activation	gem_r/activation	peri_r/activation	rect_fem_r/activation	vas_med_r/activation	vas_int_r/activation	vas_lat_r/activation	med_gas_r/activation	lat_gas_r/activation	soleus_r/activation	tib_post_r/activation	flex_dig_r/activation	flex_hal_r/activation	tib_ant_r/activation	per_brev_r/activation	per_long_r/activation	per_tert_r/activation	ext_dig_r/activation	ext_hal_r/activation	ercspn_r/activation	intobl_r/activation	extobl_r/activation	
          0.56987177	         -2.92987734	          1.98846200	         -5.30261609	          0.71233972	          0.91798362	          0.00236477	         29.87091031	          3.26961767	         -2.04802243	        -16.27929956	         -0.63561063	          6.89975506	        -10.95163621	         -8.07674824	          6.40358312	         -0.84112346	         -5.57674574	          7.99635697	         -4.18206181	          6.20501904	         12.39594280	          6.58858246	         -1.88483161	         -0.13209159	          1.97206189	         -4.90552941	        -13.45663305	          7.02868050	          4.79032319	        -13.45046988	         15.79829351	         16.69820558	         33.83789941	         86.51662706	         86.51662706	          0.05000099	          0.05000043	          0.05949785	          0.05000010	          0.05000017	          0.05000103	          0.19977434	          0.05950111	          0.08028864	          0.05006895	          0.05000030	          0.09755680	          0.18466640	          0.20017680	          0.16844094	          0.09641108	          0.05949795	          0.05000272	          0.12843467	          0.05949827	          0.05949951	          0.10280770	          0.05000007	          0.05000010	          0.21893923	          0.05000390	          0.05000030	          0.05000009	          0.07105142	          0.07221326	          0.05916556	          0.05949790	          0.05949793	          0.05949787	          0.05203471	          0.05000110	          0.05108005	          0.45958833	          0.29548231	          0.19080285	          0.08675715	          0.46639793	          0.10000513	          0.05949775	          0.12861587	          0.10807489	          0.35064361	          0.11072732	          0.07572433	          0.31402170	          0.21369890	          0.11929499	          0.05000113	          0.05000021	          0.05000015	          0.06163745	          0.11551449	          0.05000006	          0.05000008	          0.05000013	          0.05000043	          0.05000041	          0.31975312	          0.05000030	          0.05000027	          0.05006622	          0.05000795	          0.05000114	          0.40421241	          0.62611656	          0.05000019	          0.05000100	          0.06668135	          0.21920844	          0.05000144	          0.05000068	          0.05000061	          0.30101460	          0.39950978	          0.36642341	          0.26983745	          0.25519773	          0.33820462	          0.05000003	          0.05967016	          0.14416811	          0.05000019	          0.05000005	          0.05000018	          0.05000000	          0.05000001	          0.05000003	
          0.58126921	         -2.92940069	          2.08563023	         -5.57061538	          0.72934052	          0.91716843	          0.00215108	         29.27043551	          3.66978469	         -1.85736808	        -16.19039691	         -0.93516300	          6.71455024	        -11.01855063	         -9.95051382	          5.74033120	         -1.34318697	         -5.93723538	          8.95424574	         -4.24983923	          5.51894482	         12.21036324	          8.04253960	         -1.69647292	         -0.33609358	          2.04671806	         -5.77167528	        -13.45064471	          6.80100747	          4.55643451	        -13.45705114	         16.18117585	         16.30144424	         34.97747907	         86.51662706	         86.51662706	          0.05000021	          0.05000023	          0.05000012	          0.05949774	          0.05000207	          0.05000024	          0.16788367	          0.05000276	          0.06747189	          0.05000023	          0.05000472	          0.11931599	          0.25273556	          0.25338444	          0.16936410	          0.08102165	          0.05000021	          0.08291734	          0.10793251	          0.05000048	          0.05000144	          0.10514916	          0.07079994	          0.07079967	          0.55617223	          0.20078866	          0.14810720	          0.08424925	          0.20654206	          0.20529485	          0.17524351	          0.05000004	          0.05000008	          0.05000001	          0.05000017	          0.05000123	          0.05000079	          0.53215363	          0.24831365	          0.19534203	          0.22249619	          0.49878130	          0.19752792	          0.05000002	          0.10808446	          0.09082251	          0.29466923	          0.09305154	          0.06363620	          0.26389338	          0.17958541	          0.10025154	          0.05000212	          0.05000041	          0.05000046	          0.05179812	          0.09707467	          0.09930040	          0.07650659	          0.05000609	          0.05000417	          0.05000221	          0.26870991	          0.09441769	          0.05000407	          0.05000182	          0.05000108	          0.05000101	          0.33968658	          0.52734161	          0.05000032	          0.05000295	          0.05949776	          0.18421548	          0.05000078	          0.13447570	          0.13786962	          0.25296254	          0.33573461	          0.32625041	          0.23665549	          0.21446018	          0.28421655	          0.05000003	          0.05014500	          0.13430226	          0.05000017	          0.05000004	          0.05000019	          0.05000005	          0.07341864	          0.06057628	
          0.59266664	         -2.92498667	          2.18341573	         -5.80913188	          0.74669544	          0.91637998	          0.00195722	         28.53350634	          3.98975848	         -1.59794752	        -16.07182476	         -1.23391264	          6.52413582	        -11.42611220	        -11.86860186	          5.15180683	         -1.91225486	         -6.29959088	          9.87254060	         -4.46495818	          4.57359629	         12.11325158	          9.67048810	         -1.48318734	         -0.54946650	          2.11017733	         -6.67050187	        -13.45115632	          6.63390205	          4.23542003	        -13.46122014	         16.48097819	         15.94610218	         36.10476973	         86.51662706	         86.51662706	          0.23569985	          0.05000012	          0.17116025	          0.05000011	          0.05000011	          0.19465184	          0.15622680	          0.08455983	          0.07523425	          0.05000009	          0.05000069	          0.10026919	          0.21239053	          0.21293586	          0.14232807	          0.08313081	          0.05000088	          0.06968170	          0.09070343	          0.05000055	          0.05000103	          0.08836390	          0.05949799	          0.05949783	          0.46738844	          0.16873608	          0.12446464	          0.07080024	          0.17357102	          0.17252291	          0.14726877	          0.05734190	          0.05949562	          0.05779552	          0.05000087	          0.05000059	          0.05000072	          0.44720411	          0.28572457	          0.16680429	          0.18697834	          0.57155945	          0.29059814	          0.05000000	          0.11714709	          0.07632418	          0.36452786	          0.07819740	          0.05347776	          0.22176725	          0.15091759	          0.08424806	          0.05000278	          0.05000080	          0.05000052	          0.05000011	          0.08157845	          0.13089035	          0.07340097	          0.05949863	          0.05949855	          0.05949807	          0.22581533	          0.08419210	          0.05025676	          0.05000725	          0.05001510	          0.05949746	          0.28546161	          0.51918732	          0.05131636	          0.05000096	          0.05000010	          0.15480852	          0.12516511	          0.11516457	          0.11586191	          0.21258120	          0.28214007	          0.27416987	          0.19887736	          0.18022525	          0.23884614	          0.05000002	          0.05000025	          0.15905778	          0.05000011	          0.05000005	          0.05000015	          0.05209359	          0.06169856	          0.05949826	
          0.60406408	         -2.91836477	          2.28027010	         -6.01139943	          0.76424241	          0.91565566	          0.00176378	         27.67270969	          4.24639956	         -1.33242508	        -15.90553089	         -1.52732513	          6.33912349	        -11.77035635	        -13.83776008	          4.48131013	         -2.51564387	         -6.66776744	         10.74248959	         -4.53296526	          3.29993552	         12.17102249	         11.52818575	         -1.26151512	         -0.77029811	          2.16350198	         -7.56297738	        -13.45674604	          6.53775438	          3.85020936	        -13.46568883	         16.70910180	         15.61133625	         37.20897782	         86.51662706	         86.51662706	          0.29674260	          0.26438830	          0.32559544	          0.19773315	          0.22527319	          0.17463099	          0.13128775	          0.07106185	          0.06322437	          0.08424895	          0.05000334	          0.08426288	          0.17848588	          0.17894426	          0.11960799	          0.10642464	          0.05000050	          0.05855852	          0.08407360	          0.18563810	          0.13576246	          0.08483569	          0.05000018	          0.05000014	          0.39277755	          0.14180025	          0.17919403	          0.05949815	          0.14586335	          0.14498259	          0.12375981	          0.05000008	          0.05000018	          0.05000001	          0.05000004	          0.05000025	          0.05000027	          0.57907035	          0.35120638	          0.19750028	          0.48431645	          0.54299973	          0.24420901	          0.07198534	          0.10362013	          0.06414028	          0.33561762	          0.06571450	          0.05000007	          0.40925993	          0.12682616	          0.07079930	          0.05000140	          0.05000012	          0.05000011	          0.05000032	          0.07079926	          0.10999607	          0.06168378	          0.05000077	          0.05000096	          0.05000042	          0.24406551	          0.07075310	          0.05000039	          0.05000101	          0.05000052	          0.05000034	          0.23989260	          0.48762257	          0.05000006	          0.05000046	          0.05000035	          0.13434943	          0.10518499	          0.12544942	          0.11929601	          0.17864609	          0.23710103	          0.23040312	          0.16712987	          0.15145531	          0.20071832	          0.06347947	          0.09092077	          0.16006778	          0.05000045	          0.10168831	          0.05000051	          0.06253517	          0.05184940	          0.05000034	
